<svg width="50" height="50" viewBox="0 0 50 50" fill="none" xmlns="http://www.w3.org/2000/svg">
<rect width="50" height="50" rx="25" fill="#3D0048"/>
<path d="M12.4385 31.5V20.72H8.43848V18.5H18.8385V20.72H14.8385V31.5H12.4385Z" fill="white"/>
<path d="M21.24 26.78V25.1H29.24V26.78H21.24Z" fill="white"/>
<path d="M36.7216 31.74C35.7883 31.74 34.9216 31.6133 34.1216 31.36C33.3216 31.0933 32.5883 30.68 31.9216 30.12L33.1416 28.18C33.6616 28.6333 34.2216 28.9667 34.8216 29.18C35.4349 29.3933 36.0883 29.5 36.7816 29.5C37.5549 29.5 38.1416 29.36 38.5416 29.08C38.9416 28.7867 39.1416 28.3667 39.1416 27.82C39.1416 27.3933 39.0283 27.0733 38.8016 26.86C38.5883 26.6333 38.2149 26.4533 37.6816 26.32L35.5816 25.8C34.5016 25.5333 33.7016 25.1133 33.1816 24.54C32.6749 23.9533 32.4216 23.1733 32.4216 22.2C32.4216 20.9733 32.8283 20.0133 33.6416 19.32C34.4549 18.6133 35.5949 18.26 37.0616 18.26C38.6483 18.26 40.0549 18.6933 41.2816 19.56L40.1416 21.54C39.2883 20.8467 38.2616 20.5 37.0616 20.5C36.3283 20.5 35.7749 20.64 35.4016 20.92C35.0283 21.1867 34.8416 21.5733 34.8416 22.08C34.8416 22.4533 34.9483 22.7533 35.1616 22.98C35.3883 23.1933 35.7683 23.3667 36.3016 23.5L38.4016 24.02C39.4816 24.2867 40.2749 24.7133 40.7816 25.3C41.3016 25.8733 41.5616 26.6733 41.5616 27.7C41.5616 28.9533 41.1349 29.94 40.2816 30.66C39.4416 31.38 38.2549 31.74 36.7216 31.74Z" fill="white"/>
</svg>
